<mxfile host="app.diagrams.net" modified="2024-07-05T11:23:10.399Z" agent="Mozilla/5.0 (Windows NT 10.0; Win64; x64) AppleWebKit/537.36 (KHTML, like Gecko) Chrome/126.0.0.0 Safari/537.36" etag="eSQXmS97DA7GC7vgcMQ6" version="24.6.4" type="device">
  <diagram name="Page-1" id="4hy9LYDYaA6J5Gps0C-w">
    <mxGraphModel dx="1884" dy="1546" grid="1" gridSize="10" guides="1" tooltips="1" connect="1" arrows="1" fold="1" page="1" pageScale="1" pageWidth="850" pageHeight="1100" math="0" shadow="0">
      <root>
        <mxCell id="0" />
        <mxCell id="1" parent="0" />
        <mxCell id="duUuDCTumniU43rp559a-3" value="" style="whiteSpace=wrap;html=1;" parent="1" vertex="1">
          <mxGeometry x="80" y="10" width="690" height="570" as="geometry" />
        </mxCell>
        <mxCell id="duUuDCTumniU43rp559a-4" value="Customer" style="shape=umlActor;verticalLabelPosition=bottom;verticalAlign=top;html=1;" parent="1" vertex="1">
          <mxGeometry x="10" y="160" width="30" height="60" as="geometry" />
        </mxCell>
        <mxCell id="duUuDCTumniU43rp559a-54" style="edgeStyle=none;rounded=0;orthogonalLoop=1;jettySize=auto;html=1;exitX=0.5;exitY=0.5;exitDx=0;exitDy=0;exitPerimeter=0;" parent="1" source="duUuDCTumniU43rp559a-5" edge="1">
          <mxGeometry relative="1" as="geometry">
            <mxPoint x="824.8000000000002" y="170" as="targetPoint" />
          </mxGeometry>
        </mxCell>
        <mxCell id="duUuDCTumniU43rp559a-5" value="Reciptionist&lt;div&gt;&lt;br&gt;&lt;/div&gt;" style="shape=umlActor;verticalLabelPosition=bottom;verticalAlign=top;html=1;" parent="1" vertex="1">
          <mxGeometry x="800" y="122.5" width="30" height="60" as="geometry" />
        </mxCell>
        <mxCell id="duUuDCTumniU43rp559a-6" value="create Acc" style="ellipse;whiteSpace=wrap;html=1;" parent="1" vertex="1">
          <mxGeometry x="110" y="60" width="70" height="40" as="geometry" />
        </mxCell>
        <mxCell id="duUuDCTumniU43rp559a-7" value="Make Reservation" style="ellipse;whiteSpace=wrap;html=1;" parent="1" vertex="1">
          <mxGeometry x="140" y="360" width="80" height="40" as="geometry" />
        </mxCell>
        <mxCell id="duUuDCTumniU43rp559a-8" value="login/logout Acc" style="ellipse;whiteSpace=wrap;html=1;" parent="1" vertex="1">
          <mxGeometry x="300" y="60" width="80" height="40" as="geometry" />
        </mxCell>
        <mxCell id="duUuDCTumniU43rp559a-9" value="update/Cancel Acc" style="ellipse;whiteSpace=wrap;html=1;" parent="1" vertex="1">
          <mxGeometry x="190" y="60" width="100" height="40" as="geometry" />
        </mxCell>
        <mxCell id="duUuDCTumniU43rp559a-10" value="Update Reservation" style="ellipse;whiteSpace=wrap;html=1;" parent="1" vertex="1">
          <mxGeometry x="480" y="60" width="80" height="40" as="geometry" />
        </mxCell>
        <mxCell id="duUuDCTumniU43rp559a-11" value="Cancel Reservation" style="ellipse;whiteSpace=wrap;html=1;" parent="1" vertex="1">
          <mxGeometry x="570" y="60" width="80" height="40" as="geometry" />
        </mxCell>
        <mxCell id="duUuDCTumniU43rp559a-12" value="Search Invantory Vehicle" style="ellipse;whiteSpace=wrap;html=1;" parent="1" vertex="1">
          <mxGeometry x="660" y="60" width="100" height="50" as="geometry" />
        </mxCell>
        <mxCell id="duUuDCTumniU43rp559a-13" value="Pickup Vehicle" style="ellipse;whiteSpace=wrap;html=1;" parent="1" vertex="1">
          <mxGeometry x="110" y="145" width="70" height="40" as="geometry" />
        </mxCell>
        <mxCell id="duUuDCTumniU43rp559a-14" value="Pay Bill" style="ellipse;whiteSpace=wrap;html=1;" parent="1" vertex="1">
          <mxGeometry x="397.5" y="145" width="65" height="40" as="geometry" />
        </mxCell>
        <mxCell id="duUuDCTumniU43rp559a-15" value="Return Vehicle" style="ellipse;whiteSpace=wrap;html=1;" parent="1" vertex="1">
          <mxGeometry x="210" y="145" width="70" height="40" as="geometry" />
        </mxCell>
        <mxCell id="duUuDCTumniU43rp559a-17" value="" style="endArrow=block;dashed=1;endFill=0;endSize=12;html=1;rounded=0;entryX=0;entryY=0.5;entryDx=0;entryDy=0;" parent="1" target="duUuDCTumniU43rp559a-14" edge="1">
          <mxGeometry width="160" relative="1" as="geometry">
            <mxPoint x="280" y="164.6" as="sourcePoint" />
            <mxPoint x="370" y="164.6" as="targetPoint" />
          </mxGeometry>
        </mxCell>
        <mxCell id="duUuDCTumniU43rp559a-18" value="&amp;lt;&amp;lt;include&amp;gt;&amp;gt;" style="edgeLabel;html=1;align=center;verticalAlign=middle;resizable=0;points=[];" parent="duUuDCTumniU43rp559a-17" vertex="1" connectable="0">
          <mxGeometry x="-0.1507" y="1" relative="1" as="geometry">
            <mxPoint as="offset" />
          </mxGeometry>
        </mxCell>
        <mxCell id="duUuDCTumniU43rp559a-19" value="Add Vehicle" style="ellipse;whiteSpace=wrap;html=1;" parent="1" vertex="1">
          <mxGeometry x="260" y="235" width="60" height="45" as="geometry" />
        </mxCell>
        <mxCell id="duUuDCTumniU43rp559a-20" value="Modify Vehicle" style="ellipse;whiteSpace=wrap;html=1;" parent="1" vertex="1">
          <mxGeometry x="350" y="235" width="70" height="45" as="geometry" />
        </mxCell>
        <mxCell id="duUuDCTumniU43rp559a-21" value="Add Car" style="ellipse;whiteSpace=wrap;html=1;" parent="1" vertex="1">
          <mxGeometry x="100" y="280" width="40" height="30" as="geometry" />
        </mxCell>
        <mxCell id="duUuDCTumniU43rp559a-22" value="Remove Vehicle" style="ellipse;whiteSpace=wrap;html=1;" parent="1" vertex="1">
          <mxGeometry x="675" y="142.5" width="70" height="47.5" as="geometry" />
        </mxCell>
        <mxCell id="duUuDCTumniU43rp559a-23" value="Modify Moterbike" style="ellipse;whiteSpace=wrap;html=1;" parent="1" vertex="1">
          <mxGeometry x="450" y="280" width="70" height="40" as="geometry" />
        </mxCell>
        <mxCell id="duUuDCTumniU43rp559a-24" value="Modify Car" style="ellipse;whiteSpace=wrap;html=1;" parent="1" vertex="1">
          <mxGeometry x="570" y="212.5" width="50" height="30" as="geometry" />
        </mxCell>
        <mxCell id="duUuDCTumniU43rp559a-25" value="Modify Truck" style="ellipse;whiteSpace=wrap;html=1;" parent="1" vertex="1">
          <mxGeometry x="450" y="207.5" width="50" height="40" as="geometry" />
        </mxCell>
        <mxCell id="duUuDCTumniU43rp559a-26" value="Add MoterBike" style="ellipse;whiteSpace=wrap;html=1;" parent="1" vertex="1">
          <mxGeometry x="160" y="205" width="70" height="35" as="geometry" />
        </mxCell>
        <mxCell id="duUuDCTumniU43rp559a-27" value="Add Van" style="ellipse;whiteSpace=wrap;html=1;" parent="1" vertex="1">
          <mxGeometry x="165" y="280" width="40" height="30" as="geometry" />
        </mxCell>
        <mxCell id="duUuDCTumniU43rp559a-28" value="Add Truck" style="ellipse;whiteSpace=wrap;html=1;" parent="1" vertex="1">
          <mxGeometry x="100" y="210" width="40" height="30" as="geometry" />
        </mxCell>
        <mxCell id="duUuDCTumniU43rp559a-29" value="Modify Van" style="ellipse;whiteSpace=wrap;html=1;" parent="1" vertex="1">
          <mxGeometry x="570" y="285" width="50" height="30" as="geometry" />
        </mxCell>
        <mxCell id="duUuDCTumniU43rp559a-30" value="Remve Moterbike" style="ellipse;whiteSpace=wrap;html=1;" parent="1" vertex="1">
          <mxGeometry x="660" y="280" width="60" height="40" as="geometry" />
        </mxCell>
        <mxCell id="duUuDCTumniU43rp559a-31" value="Remove Truck" style="ellipse;whiteSpace=wrap;html=1;" parent="1" vertex="1">
          <mxGeometry x="650" y="220" width="70" height="35" as="geometry" />
        </mxCell>
        <mxCell id="duUuDCTumniU43rp559a-32" value="Remove Van" style="ellipse;whiteSpace=wrap;html=1;" parent="1" vertex="1">
          <mxGeometry x="590" y="140" width="70" height="45" as="geometry" />
        </mxCell>
        <mxCell id="duUuDCTumniU43rp559a-33" value="Remove Car" style="ellipse;whiteSpace=wrap;html=1;" parent="1" vertex="1">
          <mxGeometry x="510" y="142.5" width="60" height="40" as="geometry" />
        </mxCell>
        <mxCell id="duUuDCTumniU43rp559a-34" value="" style="html=1;verticalAlign=bottom;endArrow=block;curved=0;rounded=0;" parent="1" edge="1">
          <mxGeometry width="80" relative="1" as="geometry">
            <mxPoint x="120" y="257" as="sourcePoint" />
            <mxPoint x="260" y="257.1" as="targetPoint" />
          </mxGeometry>
        </mxCell>
        <mxCell id="duUuDCTumniU43rp559a-39" value="" style="endArrow=none;html=1;rounded=0;" parent="1" edge="1">
          <mxGeometry width="50" height="50" relative="1" as="geometry">
            <mxPoint x="190" y="280" as="sourcePoint" />
            <mxPoint x="190" y="240" as="targetPoint" />
          </mxGeometry>
        </mxCell>
        <mxCell id="duUuDCTumniU43rp559a-42" value="" style="endArrow=none;html=1;rounded=0;entryX=0.5;entryY=0;entryDx=0;entryDy=0;exitX=0.5;exitY=1;exitDx=0;exitDy=0;" parent="1" source="duUuDCTumniU43rp559a-28" target="duUuDCTumniU43rp559a-21" edge="1">
          <mxGeometry width="50" height="50" relative="1" as="geometry">
            <mxPoint x="250" y="350" as="sourcePoint" />
            <mxPoint x="300" y="300" as="targetPoint" />
          </mxGeometry>
        </mxCell>
        <mxCell id="duUuDCTumniU43rp559a-43" value="" style="endArrow=classic;html=1;rounded=0;entryX=1;entryY=0.611;entryDx=0;entryDy=0;entryPerimeter=0;" parent="1" target="duUuDCTumniU43rp559a-20" edge="1">
          <mxGeometry width="50" height="50" relative="1" as="geometry">
            <mxPoint x="590" y="262" as="sourcePoint" />
            <mxPoint x="419.99999999999955" y="264.6" as="targetPoint" />
          </mxGeometry>
        </mxCell>
        <mxCell id="duUuDCTumniU43rp559a-44" value="" style="endArrow=none;html=1;rounded=0;entryX=0.5;entryY=1;entryDx=0;entryDy=0;" parent="1" source="duUuDCTumniU43rp559a-23" target="duUuDCTumniU43rp559a-25" edge="1">
          <mxGeometry width="50" height="50" relative="1" as="geometry">
            <mxPoint x="420" y="260" as="sourcePoint" />
            <mxPoint x="470" y="210" as="targetPoint" />
          </mxGeometry>
        </mxCell>
        <mxCell id="duUuDCTumniU43rp559a-45" value="" style="endArrow=none;html=1;rounded=0;exitX=0.5;exitY=0;exitDx=0;exitDy=0;" parent="1" source="duUuDCTumniU43rp559a-29" edge="1">
          <mxGeometry width="50" height="50" relative="1" as="geometry">
            <mxPoint x="420" y="260" as="sourcePoint" />
            <mxPoint x="590" y="243" as="targetPoint" />
          </mxGeometry>
        </mxCell>
        <mxCell id="duUuDCTumniU43rp559a-46" value="" style="endArrow=classic;html=1;rounded=0;entryX=0.228;entryY=0.91;entryDx=0;entryDy=0;entryPerimeter=0;" parent="1" target="duUuDCTumniU43rp559a-22" edge="1">
          <mxGeometry width="50" height="50" relative="1" as="geometry">
            <mxPoint x="540" y="200" as="sourcePoint" />
            <mxPoint x="430" y="315" as="targetPoint" />
            <Array as="points">
              <mxPoint x="670" y="200" />
            </Array>
          </mxGeometry>
        </mxCell>
        <mxCell id="duUuDCTumniU43rp559a-47" value="" style="endArrow=classic;html=1;rounded=0;entryX=0.677;entryY=0.978;entryDx=0;entryDy=0;entryPerimeter=0;" parent="1" target="duUuDCTumniU43rp559a-22" edge="1">
          <mxGeometry width="50" height="50" relative="1" as="geometry">
            <mxPoint x="750" y="310" as="sourcePoint" />
            <mxPoint x="410" y="310" as="targetPoint" />
            <Array as="points">
              <mxPoint x="750" y="210" />
            </Array>
          </mxGeometry>
        </mxCell>
        <mxCell id="duUuDCTumniU43rp559a-48" value="" style="endArrow=none;html=1;rounded=0;entryX=1;entryY=0.5;entryDx=0;entryDy=0;" parent="1" target="duUuDCTumniU43rp559a-31" edge="1">
          <mxGeometry width="50" height="50" relative="1" as="geometry">
            <mxPoint x="750" y="238" as="sourcePoint" />
            <mxPoint x="545" y="350" as="targetPoint" />
          </mxGeometry>
        </mxCell>
        <mxCell id="duUuDCTumniU43rp559a-49" value="" style="endArrow=none;html=1;rounded=0;entryX=0.5;entryY=1;entryDx=0;entryDy=0;" parent="1" target="duUuDCTumniU43rp559a-32" edge="1">
          <mxGeometry width="50" height="50" relative="1" as="geometry">
            <mxPoint x="625" y="200" as="sourcePoint" />
            <mxPoint x="420" y="320" as="targetPoint" />
          </mxGeometry>
        </mxCell>
        <mxCell id="duUuDCTumniU43rp559a-50" value="" style="endArrow=none;html=1;rounded=0;entryX=0.5;entryY=1;entryDx=0;entryDy=0;" parent="1" target="duUuDCTumniU43rp559a-33" edge="1">
          <mxGeometry width="50" height="50" relative="1" as="geometry">
            <mxPoint x="540" y="200" as="sourcePoint" />
            <mxPoint x="420" y="315" as="targetPoint" />
          </mxGeometry>
        </mxCell>
        <mxCell id="duUuDCTumniU43rp559a-52" value="" style="endArrow=none;html=1;rounded=0;entryX=1;entryY=0.5;entryDx=0;entryDy=0;" parent="1" target="duUuDCTumniU43rp559a-30" edge="1">
          <mxGeometry width="50" height="50" relative="1" as="geometry">
            <mxPoint x="750" y="300" as="sourcePoint" />
            <mxPoint x="425" y="320" as="targetPoint" />
          </mxGeometry>
        </mxCell>
        <mxCell id="duUuDCTumniU43rp559a-53" value="System" style="shape=umlActor;verticalLabelPosition=bottom;verticalAlign=top;html=1;" parent="1" vertex="1">
          <mxGeometry x="800" y="340" width="30" height="60" as="geometry" />
        </mxCell>
        <mxCell id="duUuDCTumniU43rp559a-55" value="Update log" style="ellipse;whiteSpace=wrap;html=1;" parent="1" vertex="1">
          <mxGeometry x="280" y="370" width="80" height="60" as="geometry" />
        </mxCell>
        <mxCell id="duUuDCTumniU43rp559a-56" value="Cancel Reservation Notification" style="ellipse;whiteSpace=wrap;html=1;" parent="1" vertex="1">
          <mxGeometry x="650" y="370" width="80" height="60" as="geometry" />
        </mxCell>
        <mxCell id="duUuDCTumniU43rp559a-57" value="Reservation Notification" style="ellipse;whiteSpace=wrap;html=1;" parent="1" vertex="1">
          <mxGeometry x="430" y="370" width="80" height="60" as="geometry" />
        </mxCell>
        <mxCell id="duUuDCTumniU43rp559a-58" value="OverDue Notification" style="ellipse;whiteSpace=wrap;html=1;" parent="1" vertex="1">
          <mxGeometry x="540" y="370" width="80" height="60" as="geometry" />
        </mxCell>
        <mxCell id="duUuDCTumniU43rp559a-59" value="&lt;b&gt;&lt;font style=&quot;font-size: 24px;&quot;&gt;Car Rental System&lt;/font&gt;&lt;/b&gt;" style="text;html=1;align=center;verticalAlign=middle;resizable=0;points=[];autosize=1;strokeColor=none;fillColor=none;" parent="1" vertex="1">
          <mxGeometry x="305" y="-30" width="240" height="40" as="geometry" />
        </mxCell>
        <mxCell id="duUuDCTumniU43rp559a-60" value="" style="endArrow=none;html=1;rounded=0;exitX=1;exitY=0.3333333333333333;exitDx=0;exitDy=0;exitPerimeter=0;entryX=0.5;entryY=1;entryDx=0;entryDy=0;" parent="1" source="duUuDCTumniU43rp559a-4" target="duUuDCTumniU43rp559a-12" edge="1">
          <mxGeometry width="50" height="50" relative="1" as="geometry">
            <mxPoint x="40" y="166" as="sourcePoint" />
            <mxPoint x="40" y="40" as="targetPoint" />
            <Array as="points">
              <mxPoint x="40" y="110" />
            </Array>
          </mxGeometry>
        </mxCell>
        <mxCell id="duUuDCTumniU43rp559a-61" value="" style="endArrow=none;html=1;rounded=0;entryX=0.5;entryY=1;entryDx=0;entryDy=0;" parent="1" target="duUuDCTumniU43rp559a-6" edge="1">
          <mxGeometry width="50" height="50" relative="1" as="geometry">
            <mxPoint x="140" y="110" as="sourcePoint" />
            <mxPoint x="280" y="110" as="targetPoint" />
          </mxGeometry>
        </mxCell>
        <mxCell id="duUuDCTumniU43rp559a-62" value="" style="endArrow=none;html=1;rounded=0;entryX=0.5;entryY=1;entryDx=0;entryDy=0;" parent="1" target="duUuDCTumniU43rp559a-9" edge="1">
          <mxGeometry width="50" height="50" relative="1" as="geometry">
            <mxPoint x="240" y="110" as="sourcePoint" />
            <mxPoint x="280" y="110" as="targetPoint" />
          </mxGeometry>
        </mxCell>
        <mxCell id="duUuDCTumniU43rp559a-63" value="" style="endArrow=none;html=1;rounded=0;entryX=0.551;entryY=0.987;entryDx=0;entryDy=0;entryPerimeter=0;" parent="1" target="duUuDCTumniU43rp559a-11" edge="1">
          <mxGeometry width="50" height="50" relative="1" as="geometry">
            <mxPoint x="614.2836186835107" y="110" as="sourcePoint" />
            <mxPoint x="280" y="110" as="targetPoint" />
          </mxGeometry>
        </mxCell>
        <mxCell id="duUuDCTumniU43rp559a-64" value="" style="endArrow=none;html=1;rounded=0;entryX=0.5;entryY=1;entryDx=0;entryDy=0;" parent="1" target="duUuDCTumniU43rp559a-10" edge="1">
          <mxGeometry width="50" height="50" relative="1" as="geometry">
            <mxPoint x="520" y="110" as="sourcePoint" />
            <mxPoint x="280" y="110" as="targetPoint" />
          </mxGeometry>
        </mxCell>
        <mxCell id="duUuDCTumniU43rp559a-65" value="" style="endArrow=none;html=1;rounded=0;entryX=0.971;entryY=0.267;entryDx=0;entryDy=0;entryPerimeter=0;" parent="1" target="duUuDCTumniU43rp559a-7" edge="1">
          <mxGeometry width="50" height="50" relative="1" as="geometry">
            <mxPoint x="340" y="330" as="sourcePoint" />
            <mxPoint x="280" y="110" as="targetPoint" />
          </mxGeometry>
        </mxCell>
        <mxCell id="duUuDCTumniU43rp559a-66" value="" style="endArrow=none;html=1;rounded=0;entryX=0.551;entryY=0.994;entryDx=0;entryDy=0;entryPerimeter=0;" parent="1" target="duUuDCTumniU43rp559a-8" edge="1">
          <mxGeometry width="50" height="50" relative="1" as="geometry">
            <mxPoint x="340" y="110" as="sourcePoint" />
            <mxPoint x="340" y="100" as="targetPoint" />
          </mxGeometry>
        </mxCell>
        <mxCell id="duUuDCTumniU43rp559a-67" value="" style="endArrow=none;html=1;rounded=0;exitX=0.5;exitY=0;exitDx=0;exitDy=0;" parent="1" source="duUuDCTumniU43rp559a-14" edge="1">
          <mxGeometry width="50" height="50" relative="1" as="geometry">
            <mxPoint x="370" y="170" as="sourcePoint" />
            <mxPoint x="410" y="110" as="targetPoint" />
          </mxGeometry>
        </mxCell>
        <mxCell id="duUuDCTumniU43rp559a-68" value="" style="endArrow=none;html=1;rounded=0;exitX=0.5;exitY=0;exitDx=0;exitDy=0;" parent="1" source="duUuDCTumniU43rp559a-15" edge="1">
          <mxGeometry width="50" height="50" relative="1" as="geometry">
            <mxPoint x="370" y="170" as="sourcePoint" />
            <mxPoint x="240" y="110" as="targetPoint" />
          </mxGeometry>
        </mxCell>
        <mxCell id="duUuDCTumniU43rp559a-69" value="" style="endArrow=none;html=1;rounded=0;exitX=0.5;exitY=0;exitDx=0;exitDy=0;" parent="1" source="duUuDCTumniU43rp559a-13" edge="1">
          <mxGeometry width="50" height="50" relative="1" as="geometry">
            <mxPoint x="370" y="170" as="sourcePoint" />
            <mxPoint x="145" y="110" as="targetPoint" />
          </mxGeometry>
        </mxCell>
        <mxCell id="duUuDCTumniU43rp559a-70" value="" style="endArrow=none;html=1;rounded=0;exitX=0;exitY=0.3333333333333333;exitDx=0;exitDy=0;exitPerimeter=0;entryX=0.5;entryY=0;entryDx=0;entryDy=0;" parent="1" source="duUuDCTumniU43rp559a-5" target="duUuDCTumniU43rp559a-6" edge="1">
          <mxGeometry width="50" height="50" relative="1" as="geometry">
            <mxPoint x="370" y="170" as="sourcePoint" />
            <mxPoint x="800" as="targetPoint" />
            <Array as="points">
              <mxPoint x="800" y="20" />
              <mxPoint x="420" y="21" />
              <mxPoint x="150" y="21" />
            </Array>
          </mxGeometry>
        </mxCell>
        <mxCell id="duUuDCTumniU43rp559a-71" value="" style="endArrow=none;html=1;rounded=0;entryX=0.5;entryY=0;entryDx=0;entryDy=0;" parent="1" target="duUuDCTumniU43rp559a-12" edge="1">
          <mxGeometry width="50" height="50" relative="1" as="geometry">
            <mxPoint x="700" y="20" as="sourcePoint" />
            <mxPoint x="420" y="120" as="targetPoint" />
          </mxGeometry>
        </mxCell>
        <mxCell id="duUuDCTumniU43rp559a-72" value="" style="endArrow=none;html=1;rounded=0;entryX=0.5;entryY=0;entryDx=0;entryDy=0;" parent="1" target="duUuDCTumniU43rp559a-11" edge="1">
          <mxGeometry width="50" height="50" relative="1" as="geometry">
            <mxPoint x="610" y="20" as="sourcePoint" />
            <mxPoint x="420" y="120" as="targetPoint" />
          </mxGeometry>
        </mxCell>
        <mxCell id="duUuDCTumniU43rp559a-73" value="" style="endArrow=none;html=1;rounded=0;entryX=0.5;entryY=0;entryDx=0;entryDy=0;" parent="1" target="duUuDCTumniU43rp559a-10" edge="1">
          <mxGeometry width="50" height="50" relative="1" as="geometry">
            <mxPoint x="510" y="20" as="sourcePoint" />
            <mxPoint x="420" y="120" as="targetPoint" />
          </mxGeometry>
        </mxCell>
        <mxCell id="duUuDCTumniU43rp559a-74" value="" style="endArrow=none;html=1;rounded=0;exitX=0;exitY=0.5;exitDx=0;exitDy=0;entryX=1;entryY=0.3333333333333333;entryDx=0;entryDy=0;entryPerimeter=0;" parent="1" source="duUuDCTumniU43rp559a-7" target="duUuDCTumniU43rp559a-4" edge="1">
          <mxGeometry width="50" height="50" relative="1" as="geometry">
            <mxPoint x="370" y="170" as="sourcePoint" />
            <mxPoint x="440" y="20" as="targetPoint" />
            <Array as="points">
              <mxPoint x="40" y="380" />
            </Array>
          </mxGeometry>
        </mxCell>
        <mxCell id="duUuDCTumniU43rp559a-75" value="" style="endArrow=none;html=1;rounded=0;exitX=0.5;exitY=0;exitDx=0;exitDy=0;" parent="1" source="duUuDCTumniU43rp559a-8" edge="1">
          <mxGeometry width="50" height="50" relative="1" as="geometry">
            <mxPoint x="370" y="170" as="sourcePoint" />
            <mxPoint x="330" y="20" as="targetPoint" />
          </mxGeometry>
        </mxCell>
        <mxCell id="duUuDCTumniU43rp559a-76" value="" style="endArrow=none;html=1;rounded=0;entryX=0.5;entryY=0;entryDx=0;entryDy=0;" parent="1" target="duUuDCTumniU43rp559a-9" edge="1">
          <mxGeometry width="50" height="50" relative="1" as="geometry">
            <mxPoint x="240" y="20" as="sourcePoint" />
            <mxPoint x="420" y="120" as="targetPoint" />
          </mxGeometry>
        </mxCell>
        <mxCell id="duUuDCTumniU43rp559a-77" value="" style="endArrow=none;html=1;rounded=0;entryX=0;entryY=0.3333333333333333;entryDx=0;entryDy=0;entryPerimeter=0;" parent="1" target="duUuDCTumniU43rp559a-53" edge="1">
          <mxGeometry width="50" height="50" relative="1" as="geometry">
            <mxPoint x="330" y="450" as="sourcePoint" />
            <mxPoint x="420" y="220" as="targetPoint" />
            <Array as="points">
              <mxPoint x="800" y="450" />
            </Array>
          </mxGeometry>
        </mxCell>
        <mxCell id="duUuDCTumniU43rp559a-78" value="" style="endArrow=none;html=1;rounded=0;entryX=0.696;entryY=0.967;entryDx=0;entryDy=0;entryPerimeter=0;" parent="1" target="duUuDCTumniU43rp559a-56" edge="1">
          <mxGeometry width="50" height="50" relative="1" as="geometry">
            <mxPoint x="720" y="450" as="sourcePoint" />
            <mxPoint x="420" y="220" as="targetPoint" />
          </mxGeometry>
        </mxCell>
        <mxCell id="duUuDCTumniU43rp559a-79" value="" style="endArrow=none;html=1;rounded=0;entryX=0.721;entryY=0.944;entryDx=0;entryDy=0;entryPerimeter=0;" parent="1" target="duUuDCTumniU43rp559a-58" edge="1">
          <mxGeometry width="50" height="50" relative="1" as="geometry">
            <mxPoint x="590" y="450" as="sourcePoint" />
            <mxPoint x="420" y="220" as="targetPoint" />
          </mxGeometry>
        </mxCell>
        <mxCell id="duUuDCTumniU43rp559a-80" value="" style="endArrow=none;html=1;rounded=0;entryX=0.5;entryY=1;entryDx=0;entryDy=0;" parent="1" target="duUuDCTumniU43rp559a-57" edge="1">
          <mxGeometry width="50" height="50" relative="1" as="geometry">
            <mxPoint x="470" y="450" as="sourcePoint" />
            <mxPoint x="420" y="220" as="targetPoint" />
          </mxGeometry>
        </mxCell>
        <mxCell id="duUuDCTumniU43rp559a-81" value="" style="endArrow=none;html=1;rounded=0;entryX=0.638;entryY=0.989;entryDx=0;entryDy=0;entryPerimeter=0;" parent="1" target="duUuDCTumniU43rp559a-55" edge="1">
          <mxGeometry width="50" height="50" relative="1" as="geometry">
            <mxPoint x="330" y="450" as="sourcePoint" />
            <mxPoint x="420" y="220" as="targetPoint" />
          </mxGeometry>
        </mxCell>
        <mxCell id="duUuDCTumniU43rp559a-82" value="" style="endArrow=none;html=1;rounded=0;entryX=0;entryY=0.3333333333333333;entryDx=0;entryDy=0;entryPerimeter=0;exitX=1;exitY=0.5;exitDx=0;exitDy=0;" parent="1" source="duUuDCTumniU43rp559a-22" target="duUuDCTumniU43rp559a-5" edge="1">
          <mxGeometry width="50" height="50" relative="1" as="geometry">
            <mxPoint x="370" y="240" as="sourcePoint" />
            <mxPoint x="420" y="190" as="targetPoint" />
          </mxGeometry>
        </mxCell>
        <mxCell id="duUuDCTumniU43rp559a-83" value="" style="endArrow=none;html=1;rounded=0;entryX=0;entryY=0.3333333333333333;entryDx=0;entryDy=0;entryPerimeter=0;" parent="1" target="duUuDCTumniU43rp559a-5" edge="1">
          <mxGeometry width="50" height="50" relative="1" as="geometry">
            <mxPoint x="330" y="330" as="sourcePoint" />
            <mxPoint x="420" y="190" as="targetPoint" />
            <Array as="points">
              <mxPoint x="800" y="330" />
            </Array>
          </mxGeometry>
        </mxCell>
        <mxCell id="duUuDCTumniU43rp559a-84" value="" style="endArrow=none;html=1;rounded=0;entryX=0.5;entryY=1;entryDx=0;entryDy=0;" parent="1" target="duUuDCTumniU43rp559a-20" edge="1">
          <mxGeometry width="50" height="50" relative="1" as="geometry">
            <mxPoint x="350" y="330" as="sourcePoint" />
            <mxPoint x="380" y="285" as="targetPoint" />
          </mxGeometry>
        </mxCell>
        <mxCell id="duUuDCTumniU43rp559a-85" value="" style="endArrow=none;html=1;rounded=0;entryX=0.5;entryY=1;entryDx=0;entryDy=0;" parent="1" target="duUuDCTumniU43rp559a-19" edge="1">
          <mxGeometry width="50" height="50" relative="1" as="geometry">
            <mxPoint x="340" y="330" as="sourcePoint" />
            <mxPoint x="420" y="190" as="targetPoint" />
          </mxGeometry>
        </mxCell>
        <mxCell id="duUuDCTumniU43rp559a-86" value="" style="endArrow=none;html=1;rounded=0;" parent="1" target="duUuDCTumniU43rp559a-55" edge="1">
          <mxGeometry width="50" height="50" relative="1" as="geometry">
            <mxPoint x="340" y="330" as="sourcePoint" />
            <mxPoint x="420" y="190" as="targetPoint" />
          </mxGeometry>
        </mxCell>
        <mxCell id="duUuDCTumniU43rp559a-87" value="Add Renatal Insurance" style="ellipse;whiteSpace=wrap;html=1;" parent="1" vertex="1">
          <mxGeometry x="165" y="510" width="80" height="55" as="geometry" />
        </mxCell>
        <mxCell id="duUuDCTumniU43rp559a-88" value="Add services" style="ellipse;whiteSpace=wrap;html=1;" parent="1" vertex="1">
          <mxGeometry x="90" y="450" width="60" height="30" as="geometry" />
        </mxCell>
        <mxCell id="duUuDCTumniU43rp559a-89" value="Add Equipment" style="ellipse;whiteSpace=wrap;html=1;" parent="1" vertex="1">
          <mxGeometry x="410" y="490" width="70" height="45" as="geometry" />
        </mxCell>
        <mxCell id="duUuDCTumniU43rp559a-90" value="Add Additional Driver" style="ellipse;whiteSpace=wrap;html=1;" parent="1" vertex="1">
          <mxGeometry x="90" y="517.5" width="60" height="40" as="geometry" />
        </mxCell>
        <mxCell id="duUuDCTumniU43rp559a-93" value="" style="endArrow=block;dashed=1;endFill=0;endSize=12;html=1;rounded=0;entryX=0.05;entryY=0.717;entryDx=0;entryDy=0;exitX=0.644;exitY=0.106;exitDx=0;exitDy=0;exitPerimeter=0;entryPerimeter=0;" parent="1" source="duUuDCTumniU43rp559a-88" target="duUuDCTumniU43rp559a-7" edge="1">
          <mxGeometry width="160" relative="1" as="geometry">
            <mxPoint x="205" y="419.14" as="sourcePoint" />
            <mxPoint x="206.71572875253787" y="524.9978643762689" as="targetPoint" />
            <Array as="points" />
          </mxGeometry>
        </mxCell>
        <mxCell id="duUuDCTumniU43rp559a-98" value="&amp;lt;&amp;lt;exclude&amp;gt;&amp;gt;" style="edgeLabel;html=1;align=center;verticalAlign=middle;resizable=0;points=[];" parent="duUuDCTumniU43rp559a-93" vertex="1" connectable="0">
          <mxGeometry x="-0.239" relative="1" as="geometry">
            <mxPoint as="offset" />
          </mxGeometry>
        </mxCell>
        <mxCell id="duUuDCTumniU43rp559a-94" value="" style="endArrow=block;dashed=1;endFill=0;endSize=12;html=1;rounded=0;exitX=0.181;exitY=0.011;exitDx=0;exitDy=0;exitPerimeter=0;entryX=1;entryY=1;entryDx=0;entryDy=0;" parent="1" source="duUuDCTumniU43rp559a-89" target="duUuDCTumniU43rp559a-7" edge="1">
          <mxGeometry width="160" relative="1" as="geometry">
            <mxPoint x="360" y="380" as="sourcePoint" />
            <mxPoint x="520" y="380" as="targetPoint" />
            <Array as="points">
              <mxPoint x="300" y="490" />
              <mxPoint x="300" y="450" />
            </Array>
          </mxGeometry>
        </mxCell>
        <mxCell id="duUuDCTumniU43rp559a-97" value="&amp;lt;&amp;lt;exclude&amp;gt;&amp;gt;" style="edgeLabel;html=1;align=center;verticalAlign=middle;resizable=0;points=[];" parent="duUuDCTumniU43rp559a-94" vertex="1" connectable="0">
          <mxGeometry x="-0.4289" relative="1" as="geometry">
            <mxPoint as="offset" />
          </mxGeometry>
        </mxCell>
        <mxCell id="hVGz49jSbsVzshlbOVKA-1" value="" style="endArrow=classic;html=1;rounded=0;exitX=0;exitY=0;exitDx=0;exitDy=0;entryX=0.5;entryY=1;entryDx=0;entryDy=0;" edge="1" parent="1" source="duUuDCTumniU43rp559a-90" target="duUuDCTumniU43rp559a-88">
          <mxGeometry width="50" height="50" relative="1" as="geometry">
            <mxPoint x="160" y="490" as="sourcePoint" />
            <mxPoint x="210" y="440" as="targetPoint" />
          </mxGeometry>
        </mxCell>
        <mxCell id="hVGz49jSbsVzshlbOVKA-2" value="" style="endArrow=classic;html=1;rounded=0;exitX=0.5;exitY=0;exitDx=0;exitDy=0;" edge="1" parent="1" source="duUuDCTumniU43rp559a-87" target="duUuDCTumniU43rp559a-88">
          <mxGeometry width="50" height="50" relative="1" as="geometry">
            <mxPoint x="450" y="420" as="sourcePoint" />
            <mxPoint x="500" y="370" as="targetPoint" />
          </mxGeometry>
        </mxCell>
        <mxCell id="hVGz49jSbsVzshlbOVKA-3" value="GPS navigation&lt;div&gt;system&lt;/div&gt;" style="ellipse;whiteSpace=wrap;html=1;" vertex="1" parent="1">
          <mxGeometry x="640" y="470" width="80" height="50" as="geometry" />
        </mxCell>
        <mxCell id="hVGz49jSbsVzshlbOVKA-4" value="Child Seats" style="ellipse;whiteSpace=wrap;html=1;" vertex="1" parent="1">
          <mxGeometry x="520" y="470" width="80" height="37.5" as="geometry" />
        </mxCell>
        <mxCell id="hVGz49jSbsVzshlbOVKA-5" value="" style="endArrow=classic;html=1;rounded=0;exitX=0;exitY=0.5;exitDx=0;exitDy=0;entryX=1;entryY=0;entryDx=0;entryDy=0;" edge="1" parent="1" source="hVGz49jSbsVzshlbOVKA-4" target="duUuDCTumniU43rp559a-89">
          <mxGeometry width="50" height="50" relative="1" as="geometry">
            <mxPoint x="450" y="350" as="sourcePoint" />
            <mxPoint x="500" y="300" as="targetPoint" />
          </mxGeometry>
        </mxCell>
        <mxCell id="hVGz49jSbsVzshlbOVKA-6" value="" style="endArrow=classic;html=1;rounded=0;exitX=0;exitY=1;exitDx=0;exitDy=0;entryX=1;entryY=1;entryDx=0;entryDy=0;" edge="1" parent="1" source="hVGz49jSbsVzshlbOVKA-3" target="duUuDCTumniU43rp559a-89">
          <mxGeometry width="50" height="50" relative="1" as="geometry">
            <mxPoint x="450" y="420" as="sourcePoint" />
            <mxPoint x="500" y="370" as="targetPoint" />
          </mxGeometry>
        </mxCell>
        <mxCell id="hVGz49jSbsVzshlbOVKA-7" value="RSA" style="ellipse;whiteSpace=wrap;html=1;" vertex="1" parent="1">
          <mxGeometry x="347.5" y="525" width="50" height="40" as="geometry" />
        </mxCell>
        <mxCell id="hVGz49jSbsVzshlbOVKA-8" value="WiFi Access" style="ellipse;whiteSpace=wrap;html=1;" vertex="1" parent="1">
          <mxGeometry x="270" y="530" width="60" height="40" as="geometry" />
        </mxCell>
        <mxCell id="hVGz49jSbsVzshlbOVKA-9" value="" style="endArrow=classic;html=1;rounded=0;entryX=1;entryY=0.5;entryDx=0;entryDy=0;exitX=0.5;exitY=0;exitDx=0;exitDy=0;" edge="1" parent="1" source="hVGz49jSbsVzshlbOVKA-7" target="duUuDCTumniU43rp559a-88">
          <mxGeometry width="50" height="50" relative="1" as="geometry">
            <mxPoint x="450" y="490" as="sourcePoint" />
            <mxPoint x="500" y="440" as="targetPoint" />
          </mxGeometry>
        </mxCell>
        <mxCell id="hVGz49jSbsVzshlbOVKA-10" value="" style="endArrow=none;html=1;rounded=0;entryX=0;entryY=0;entryDx=0;entryDy=0;" edge="1" parent="1" target="hVGz49jSbsVzshlbOVKA-8">
          <mxGeometry width="50" height="50" relative="1" as="geometry">
            <mxPoint x="240" y="490" as="sourcePoint" />
            <mxPoint x="500" y="440" as="targetPoint" />
          </mxGeometry>
        </mxCell>
      </root>
    </mxGraphModel>
  </diagram>
</mxfile>
